<?xml version="1.0" encoding="UTF-8" standalone="no"?>
<!DOCTYPE svg PUBLIC "-//W3C//DTD SVG 1.1//EN" "http://www.w3.org/Graphics/SVG/1.1/DTD/svg11.dtd">
<svg width="100%" height="100%" viewBox="0 0 716 374" version="1.1" xmlns="http://www.w3.org/2000/svg" xmlns:xlink="http://www.w3.org/1999/xlink" xml:space="preserve" xmlns:serif="http://www.serif.com/" style="fill-rule:evenodd;clip-rule:evenodd;stroke-miterlimit:10;">
    <g id="Calque_9" transform="matrix(1,0,0,1,-51.8858,-42.7)">
        <g>
            <path d="M107.5,288.7L65.9,288.7C60.5,288.7 61.6,286.9 68,284.8L110.4,270.8C115.1,269.3 122.3,268 126.7,268L160.5,268C164.9,268 165.4,269.2 161.6,270.8L127,284.8C121.8,286.9 112.9,288.7 107.5,288.7Z" style="fill:rgb(15,68,150);fill-rule:nonzero;"/>
            <path d="M264.2,239.3L229.8,239.3C226.8,239.3 225.9,238.7 227.7,238.1L245.9,231.3C247.3,230.8 250.4,230.4 253,230.4L282.4,230.4C284.9,230.4 286.2,230.8 285.2,231.3L272,238.1C270.6,238.7 267.1,239.3 264.2,239.3Z" style="fill:rgb(15,68,150);fill-rule:nonzero;"/>
            <path d="M417,225L399.8,225C397.5,225 395.6,224.7 395.6,224.3L395.1,221.5C395,221.2 396.7,220.9 398.7,220.9L414.4,220.9C416.5,220.9 418.3,221.2 418.6,221.5L420.6,224.3C420.9,224.7 419.3,225 417,225Z" style="fill:rgb(15,68,150);fill-rule:nonzero;"/>
            <path d="M494.7,311.7L319.1,311.7C312.6,311.7 308.9,309.1 310.8,306L340.9,256.4C341.6,255.3 345.1,254.4 348.8,254.4L448.7,254.4C452.4,254.4 456.2,255.3 457.2,256.4L501.4,306C504.1,309.1 501.2,311.7 494.7,311.7Z" style="fill:rgb(15,68,150);fill-rule:nonzero;"/>
            <path d="M583.4,247.8L558.9,247.8C555.5,247.8 551.1,247.1 549,246.2L535.5,240.6C533.8,239.9 534.9,239.3 537.9,239.3L559.4,239.3C562.4,239.3 566.4,239.9 568.5,240.6L585,246.2C587.4,247 586.8,247.8 583.4,247.8Z" style="fill:rgb(15,68,150);fill-rule:nonzero;"/>
            <path d="M531.6,236.9L500,236.9C497.2,236.9 493.9,236.4 492.8,235.8L481.7,229.8C480.8,229.3 482.1,228.9 484.6,228.9L511.9,228.9C514.4,228.9 517.3,229.3 518.6,229.8L534,235.8C535.5,236.4 534.5,236.9 531.6,236.9Z" style="fill:rgb(15,68,150);fill-rule:nonzero;"/>
            <path d="M360.3,280.7L262.7,280.7C257.7,280.7 255.7,279.1 258.1,277.3L292.4,251.3C293.7,250.3 297.5,249.6 301,249.6L368.8,249.6C372.3,249.6 375,250.4 374.8,251.3L370.1,277.3C369.7,279.1 365.3,280.7 360.3,280.7Z" style="fill:rgb(141,198,63);fill-rule:nonzero;"/>
            <path d="M365.1,228.5L307.7,228.5C305.3,228.5 303.9,228.1 304.7,227.7L319.4,219C319.9,218.7 321.9,218.5 323.9,218.5L369.8,218.5C371.7,218.5 373.2,218.7 373.1,219L369.9,227.7C369.7,228.1 367.5,228.5 365.1,228.5Z" style="fill:rgb(15,68,150);fill-rule:nonzero;"/>
            <path d="M617.8,287L466.9,287C461.6,287 456.2,285.2 454.8,283.2L431,245.9C430.5,245.1 432.7,244.4 435.9,244.4L527.5,244.4C530.7,244.4 534.8,245.1 536.6,245.9L619,283.1C623.6,285.2 623.1,287 617.8,287Z" style="fill:rgb(188,190,192);fill-rule:nonzero;"/>
            <path d="M502.4,225.5L490.1,225.5C487.8,225.5 485.2,225.2 484.4,224.8L480.1,222.8C479.4,222.4 480.5,222.2 482.6,222.2L494,222.2C496.1,222.2 498.6,222.5 499.5,222.8L504.7,224.8C505.8,225.2 504.7,225.5 502.4,225.5Z" style="fill:rgb(188,190,192);fill-rule:nonzero;"/>
            <path d="M650.1,271.3L606.6,271.3C602.1,271.3 595.5,270 592,268.5L563.7,256C561.2,254.9 562.2,254 565.9,254L601.4,254C605.1,254 610.7,254.9 613.9,256L650.2,268.4C654.6,270 654.7,271.3 650.1,271.3Z" style="fill:rgb(237,28,36);fill-rule:nonzero;"/>
            <path d="M238.4,292L199.1,292C193.6,292 192.4,290.1 196.4,287.8L220.5,274.1C223.4,272.4 229.4,271.1 233.9,271.1L265.9,271.1C270.4,271.1 272.5,272.4 270.4,274.1L253.5,287.8C250.9,290.1 244,292 238.4,292Z" style="fill:rgb(237,28,36);fill-rule:nonzero;"/>
            <path d="M477.1,229.6L446,229.6C443.5,229.6 441.1,229.2 440.6,228.7L435.1,223.5C434.7,223.1 436.2,222.8 438.3,222.8L465.3,222.8C467.5,222.8 469.8,223.1 470.5,223.5L480.1,228.7C480.9,229.2 479.6,229.6 477.1,229.6Z" style="fill:rgb(188,190,192);fill-rule:nonzero;"/>
            <path d="M209.6,275L152.7,275C148,275 147.7,273.6 151.8,272L192.7,255.8C195.5,254.7 200.7,253.8 204.3,253.8L248.7,253.8C252.4,253.8 253.8,254.7 251.9,255.8L223.4,272C220.6,273.6 214.3,275 209.6,275Z" style="fill:rgb(141,198,63);fill-rule:nonzero;"/>
            <path d="M756.9,304.8L645.5,304.8C639.3,304.8 629.7,302.4 624.2,299.6L556,264.7C553.4,263.3 554.6,262.3 558.7,262.3L632.5,262.3C636.6,262.3 643.2,263.4 647.2,264.7L752.6,299.6C761,302.4 763.1,304.8 756.9,304.8Z" style="fill:rgb(141,198,63);fill-rule:nonzero;"/>
            <path d="M438.8,265.3L404.5,265.3C400.3,265.3 396.7,264.2 396.6,262.8L395.6,253.3C395.5,252.3 398.3,251.5 401.9,251.5L430.7,251.5C434.3,251.5 437.7,252.3 438.4,253.3L444.8,262.8C445.8,264.2 443.1,265.3 438.8,265.3Z" style="fill:rgb(141,198,63);fill-rule:nonzero;"/>
            <path d="M215.4,248.9L191.9,248.9C188.5,248.9 187.8,248.2 190.4,247.3L206.3,241.8C208.4,241.1 212.6,240.5 215.6,240.5L236.3,240.5C239.3,240.5 240.4,241.1 238.7,241.8L225.6,247.3C223.4,248.2 218.9,248.9 215.4,248.9Z" style="fill:rgb(141,198,63);fill-rule:nonzero;"/>
            <path d="M462.7,242.1L436.3,242.1C433.2,242.1 430.3,241.5 429.8,240.8L426.1,235.2C425.7,234.6 427.6,234.1 430.3,234.1L453.4,234.1C456.1,234.1 458.9,234.6 459.7,235.2L466.8,240.8C467.6,241.5 465.8,242.1 462.7,242.1Z" style="fill:rgb(141,198,63);fill-rule:nonzero;"/>
            <path d="M399.7,250.1L357.7,250.1C354.2,250.1 351.8,249.3 352.2,248.4L357,239C357.3,238.3 360,237.8 362.9,237.8L397.7,237.8C400.6,237.8 403.1,238.3 403.3,239L405.7,248.4C405.9,249.3 403.2,250.1 399.7,250.1Z" style="fill:rgb(141,198,63);fill-rule:nonzero;"/>
            <path d="M316.6,249.8L269.3,249.8C265.8,249.8 264.3,249 265.9,248.1L284.2,237.7C285.3,237.1 288.5,236.5 291.4,236.5L329.9,236.5C332.7,236.5 334.6,237 334,237.7L324.5,248.1C323.6,249 320.1,249.8 316.6,249.8Z" style="fill:rgb(141,198,63);fill-rule:nonzero;"/>
        </g>
        <g>
            <path d="M523.3,232L557.7,232C560.7,232 561.6,231.6 559.8,231.1L541.6,226.3C540.2,225.9 537.1,225.6 534.5,225.6L505.1,225.6C502.6,225.6 501.3,225.9 502.3,226.3L515.5,231.1C516.9,231.6 520.4,232 523.3,232Z" style="fill:rgb(237,28,36);fill-rule:nonzero;"/>
            <path d="M347.3,231.4L398.7,231.4C401.6,231.4 404,231 403.9,230.6L403.2,223.9C403.2,223.6 401.2,223.3 398.9,223.3L357.3,223.3C354.9,223.3 352.7,223.6 352.2,223.9L343.1,230.6C342.5,231 344.4,231.4 347.3,231.4Z" style="fill:rgb(237,28,36);fill-rule:nonzero;"/>
            <path d="M204.1,238.1L228.6,238.1C232,238.1 236.4,237.6 238.5,237L252,233C253.7,232.5 252.6,232.1 249.6,232.1L228.1,232.1C225.1,232.1 221.1,232.5 219,233L202.5,237C200.1,237.6 200.7,238.1 204.1,238.1Z" style="fill:rgb(237,28,36);fill-rule:nonzero;"/>
            <path d="M508.5,223L519.8,223C522.1,223 523.1,222.7 522,222.4L517,220.7C516,220.4 513.6,220.1 511.4,220.1L500.8,220.1C498.7,220.1 497.6,220.4 498.4,220.7L502.6,222.4C503.6,222.7 506.2,223 508.5,223Z" style="fill:rgb(237,28,36);fill-rule:nonzero;"/>
            <path d="M255.9,230.3L287.5,230.3C290.3,230.3 293.6,229.9 294.7,229.5L305.8,225.2C306.7,224.9 305.4,224.6 302.9,224.6L275.6,224.6C273.1,224.6 270.2,224.9 268.9,225.2L253.5,229.5C252,230 253.1,230.3 255.9,230.3Z" style="fill:rgb(237,28,36);fill-rule:nonzero;"/>
            <path d="M285.1,223.3L297.4,223.3C299.7,223.3 302.3,223 303.1,222.6L307.4,220.8C308.1,220.5 307,220.2 304.9,220.2L293.5,220.2C291.4,220.2 288.9,220.5 288,220.8L282.8,222.6C281.7,223 282.8,223.3 285.1,223.3Z" style="fill:rgb(141,198,63);fill-rule:nonzero;"/>
            <path d="M137.4,254.8L180.9,254.8C185.4,254.8 192,253.9 195.5,252.8L223.7,244C226.2,243.2 225.2,242.6 221.5,242.6L186,242.6C182.3,242.6 176.7,243.2 173.5,244L137.2,252.8C132.9,253.9 132.8,254.8 137.4,254.8Z" style="fill:rgb(188,190,192);fill-rule:nonzero;"/>
            <path d="M572.1,238.9L595.6,238.9C599,238.9 599.7,238.4 597.1,237.7L581.2,233.8C579.1,233.3 574.9,232.9 571.9,232.9L551.2,232.9C548.2,232.9 547.1,233.3 548.8,233.8L561.9,237.7C564.1,238.4 568.6,238.9 572.1,238.9Z" style="fill:rgb(209,211,212);fill-rule:nonzero;"/>
            <path d="M324.8,234L351.2,234C354.3,234 357.2,233.6 357.7,233.1L361.4,229.1C361.8,228.7 359.9,228.3 357.2,228.3L334.1,228.3C331.4,228.3 328.6,228.6 327.8,229.1L320.7,233.1C319.9,233.6 321.7,234 324.8,234Z" style="fill:rgb(209,211,212);fill-rule:nonzero;"/>
            <path d="M387.8,239.7L429.8,239.7C433.3,239.7 435.7,239.2 435.3,238.5L430.5,231.8C430.2,231.3 427.5,230.9 424.6,230.9L389.8,230.9C386.9,230.9 384.4,231.3 384.2,231.8L381.8,238.5C381.6,239.2 384.3,239.7 387.8,239.7Z" style="fill:rgb(209,211,212);fill-rule:nonzero;"/>
        </g>
    </g>
    <g id="Calque_14" transform="matrix(1,0,0,0.931999,-51.8858,-28.5627)">
        <path d="M61.6,207.9L383.7,207.9" style="fill:none;stroke:rgb(35,31,32);stroke-width:2px;"/>
        <path d="M412.9,207.9L757.8,207.9" style="fill:none;stroke:rgb(35,31,32);stroke-width:2px;"/>
    </g>
    <g id="Objects" transform="matrix(1,0,0,1,-51.8858,-42.7)">
        <path d="M457.4,99C457.4,67.9 432.2,42.7 401.1,42.7C370,42.7 344.8,67.9 344.8,99C344.8,109.1 347.5,118.5 352.1,126.7L395.9,212C398.1,216.2 404.1,216.2 406.3,212L450.1,126.7C454.7,118.5 457.4,109 457.4,99ZM401.1,134.5C380.6,134.5 363.9,117.8 363.9,97.3C363.9,76.8 380.6,60.1 401.1,60.1C421.6,60.1 438.3,76.8 438.3,97.3C438.3,117.9 421.7,134.5 401.1,134.5Z" style="fill:url(#_Radial1);fill-rule:nonzero;"/>
        <path d="M401.1,46.1C431.7,46.1 456.6,70.5 457.3,101C457.3,100.3 457.3,99.7 457.3,99C457.3,67.9 432.1,42.7 401,42.7C369.9,42.7 344.7,67.9 344.7,99C344.7,99.7 344.7,100.3 344.7,101C345.6,70.5 370.5,46.1 401.1,46.1Z" style="fill:url(#_Linear2);fill-rule:nonzero;"/>
    </g>
    <g id="Calque_5" transform="matrix(1,0,0,1,-51.8858,-42.7)">
        <g>
            <path d="M117.3,379L100,379L100,361.7L138,361.7L138,412.6C130.7,414.9 116,416.7 104.7,416.7C76.6,416.7 63.2,406 63.2,370.3C63.2,334.5 79,325.2 108.2,325.2C116.4,325.2 128.9,326.5 135.6,328.3L132,346.1C127.6,344.6 115.7,343.6 110.3,343.6C91.5,343.6 84.9,346.2 84.9,370.5C84.9,394.6 91.4,397.9 109,397.9C111.8,397.9 115,397.5 117.3,397.3L117.3,379Z" style="fill:rgb(149,193,31);fill-rule:nonzero;"/>
            <path d="M212,388.4L172.2,388.4C172.5,398.7 177.1,400.6 186.4,400.6C191,400.6 199.5,399.7 204.2,398.5L207.1,413.2C200.7,415.3 191.1,416.7 183.9,416.7C165.8,416.7 152.4,408.8 152.4,382.4C152.4,356.5 164.2,348.9 182.7,348.9C204,348.8 213.9,355.3 212,388.4ZM171.2,343.5L186.7,327.3L206.4,327.3L187.6,343.5L171.2,343.5ZM172.3,374.2L193.7,374.2C193.4,365.3 191.1,363.4 183.5,363.4C175.5,363.4 173.5,366 172.3,374.2Z" style="fill:rgb(149,193,31);fill-rule:nonzero;"/>
            <path d="M222.2,382.4C222.2,356.1 232.9,348.9 253.4,348.9C274.3,348.9 284.8,356.2 284.8,382.4C284.8,408.8 274.4,416.7 253.4,416.7C232.6,416.6 222.2,408.7 222.2,382.4ZM241.7,382.7C241.7,398.9 244.3,401.5 253.4,401.5C262.6,401.5 265.2,398.9 265.2,382.7C265.2,365.9 262.6,363.9 253.4,363.9C244.3,363.9 241.7,365.9 241.7,382.7Z" style="fill:rgb(149,193,31);fill-rule:nonzero;"/>
            <path d="M298.3,329.6C305.5,327.1 316.8,325.2 328.1,325.2C350,325.2 360.9,330.2 360.9,351.6C360.9,370.1 355,376.2 323.5,397.2L361.3,397.2L361.3,414.9L295.6,414.9L295.6,398.4C336.9,367.6 339.3,365.2 339.3,353.6C339.3,345.7 336,343.6 326,343.6C318,343.6 308.2,345.1 302.5,347L298.3,329.6Z" style="fill:rgb(15,68,150);fill-rule:nonzero;"/>
            <path d="M443.5,327.3L443.5,345L399.9,345L399.9,365.3L432.2,365.3L432.2,382.6L399.9,382.6L399.9,414.8L379.7,414.8L379.7,327.2L443.5,327.2L443.5,327.3Z" style="fill:rgb(15,68,150);fill-rule:nonzero;"/>
            <path d="M490.6,349.2L490.6,367.2C488.1,366.4 484.7,366.2 481.6,366.2C474.7,366.2 468.7,368.5 468.7,372.7L468.7,414.9L449.4,414.9L449.4,350.6L468.7,350.6L468.7,355.6C470.8,351.8 475,348.8 484.3,348.8C486.1,348.8 488.4,348.9 490.6,349.2Z" style="fill:rgb(15,68,150);fill-rule:nonzero;"/>
            <path d="M554.7,411.6C546,414.7 533.6,416.6 524.2,416.6C503,416.6 496.7,412.1 496.7,395.2C496.7,377.1 506.5,374.2 521.8,374.2C526.6,374.2 531.5,374.8 536.4,375.8C536.4,366.9 534.4,364.4 521.8,364.4C514.4,364.4 507.2,365.8 501.8,367.4L498.8,352.1C506.2,350.2 516.9,348.7 526.4,348.7C545.6,348.7 554.7,354.6 554.7,373.7L554.7,411.6ZM536.3,388.4C533.4,387.6 529.8,387.5 525.9,387.5C519,387.5 516.5,388.3 516.5,394.7C516.5,401.2 518.1,402.4 525.7,402.4C529.3,402.4 533.4,401.8 536.4,400.6L536.4,388.4L536.3,388.4Z" style="fill:rgb(15,68,150);fill-rule:nonzero;"/>
            <path d="M590,414.9L570.7,414.9L570.7,354.6C579,351.6 591.8,348.8 603.4,348.8C621.1,348.8 629.9,356.2 629.9,379.3L629.9,414.8L610.6,414.8L610.6,380.8C610.6,369.1 608.7,366 599.3,366C596.2,366 593.3,366.4 590.1,367.1L590.1,414.9L590,414.9Z" style="fill:rgb(15,68,150);fill-rule:nonzero;"/>
            <path d="M695.4,413.4C690.2,415.5 681.6,416.7 675.2,416.7C656,416.7 643.2,408.8 643.2,382.4C643.2,356.3 656.1,348.9 675.2,348.9C681.9,348.9 690.4,349.9 695.4,351.7L691.4,368C687.8,366.6 682.1,365.4 676.8,365.4C667.4,365.4 662.6,367 662.6,382.9C662.6,398 667.4,400.2 676.8,400.2C682.3,400.2 687.7,398.8 691.4,397.3L695.4,413.4Z" style="fill:rgb(15,68,150);fill-rule:nonzero;"/>
            <path d="M762.1,388.4L722.3,388.4C722.6,398.7 727.2,400.6 736.5,400.6C741.1,400.6 749.6,399.7 754.3,398.5L757.2,413.2C750.8,415.3 741.2,416.7 734,416.7C715.9,416.7 702.5,408.8 702.5,382.4C702.5,356.5 714.3,348.9 732.8,348.9C754,348.8 763.9,355.3 762.1,388.4ZM722.4,374.2L743.8,374.2C743.5,365.3 741.2,363.4 733.6,363.4C725.5,363.4 723.5,366 722.4,374.2Z" style="fill:rgb(15,68,150);fill-rule:nonzero;"/>
        </g>
    </g>
    <g id="Calque_11" transform="matrix(1,0,0,1,-51.8858,-42.7)">
        <rect x="504.8" y="113.2" width="26.3" height="26.3" style="fill:rgb(237,28,36);"/>
        <rect x="426" y="86.4" width="26.3" height="26.3" style="fill:rgb(15,68,150);"/>
        <rect x="478.5" y="86.9" width="26.3" height="26.3" style="fill:rgb(15,68,150);"/>
        <rect x="478.5" y="139.5" width="26.3" height="26.3" style="fill:rgb(141,198,63);"/>
        <rect x="399.7" y="60.1" width="26.3" height="26.3" style="fill:rgb(237,28,36);"/>
    </g>
    <defs>
        <radialGradient id="_Radial1" cx="0" cy="0" r="1" gradientUnits="userSpaceOnUse" gradientTransform="matrix(72.8075,0,0,72.8075,401.11,128.943)"><stop offset="0" style="stop-color:rgb(230,231,232);stop-opacity:1"/><stop offset="0.3" style="stop-color:rgb(207,208,210);stop-opacity:1"/><stop offset="0.75" style="stop-color:rgb(167,169,172);stop-opacity:1"/><stop offset="1" style="stop-color:rgb(167,169,172);stop-opacity:1"/></radialGradient>
        <linearGradient id="_Linear2" x1="0" y1="0" x2="1" y2="0" gradientUnits="userSpaceOnUse" gradientTransform="matrix(25.3501,-20.5671,20.5671,25.3501,400.223,87.2502)"><stop offset="0" style="stop-color:rgb(230,231,232);stop-opacity:0.37"/><stop offset="0.11" style="stop-color:rgb(207,208,209);stop-opacity:0.37"/><stop offset="0.34" style="stop-color:rgb(149,148,149);stop-opacity:0.37"/><stop offset="0.67" style="stop-color:rgb(57,54,55);stop-opacity:0.37"/><stop offset="0.75" style="stop-color:rgb(35,31,32);stop-opacity:0.37"/><stop offset="1" style="stop-color:rgb(35,31,32);stop-opacity:0.37"/></linearGradient>
    </defs>
</svg>
