<svg width="28" height="28" viewBox="0 0 28 28" fill="none" xmlns="http://www.w3.org/2000/svg">
<g clip-path="url(#clip0_2888_7490)">
<path fill-rule="evenodd" clip-rule="evenodd" d="M14.7604 8.729L16.5487 0L18.8296 0.513907L16.5134 9.12396L14.7604 8.729ZM4.84114 24.3096L12.7325 14.9913L0 14.9626L0.00755527 12.9041L12.6894 12.9333L4.66481 3.64039L6.31452 2.36427L14.6367 12.6381C15.262 13.4101 15.2684 14.4935 14.6518 15.2721L6.48632 25.5913L4.84114 24.3096ZM26.9885 6.88772L18.8826 10.9696L19.66 12.5531L28 8.948L26.9885 6.88772ZM19.6603 15.5117L27.9862 19.1474L26.9674 21.2042L18.8773 17.0924L19.6603 15.5117ZM18.8745 27.4938L16.5917 18.8754L14.8373 19.2644L16.5918 28L18.8745 27.4938Z" fill="#F5F5F4"/>
</g>
<defs>
<clipPath id="clip0_2888_7490">
<rect width="28" height="28" fill="white"/>
</clipPath>
</defs>
</svg>
